<svg width="32" height="32" viewBox="0 0 32 32" fill="none" xmlns="http://www.w3.org/2000/svg">
<path d="M16 3C10.6153 3 6.25005 7.36522 6.25005 12.75V18.5769L5.101 19.726C4.63625 20.1907 4.49722 20.8896 4.74874 21.4969C5.00026 22.1041 5.5928 22.5 6.25005 22.5H25.75C26.4073 22.5 26.9998 22.1041 27.2514 21.4969C27.5029 20.8896 27.3638 20.1907 26.8991 19.726L25.75 18.5769V12.75C25.75 7.36522 21.3848 3 16 3Z" fill="#333F48"/>
<path d="M16 29C13.3076 29 11.125 26.8174 11.125 24.125H20.875C20.875 26.8174 18.6924 29 16 29Z" fill="#333F48"/>
</svg>
