<svg width="32" height="32" viewBox="0 0 32 32" fill="none" xmlns="http://www.w3.org/2000/svg">
<path d="M23.2222 8.77778H26.1111C27.7066 8.77778 29 10.0712 29 11.6667V20.3333C29 21.9288 27.7066 23.2222 26.1111 23.2222H23.2222V29L17.4444 23.2222H11.6667C10.8689 23.2222 10.1467 22.8989 9.62391 22.3761M9.62391 22.3761L14.5556 17.4444H20.3333C21.9288 17.4444 23.2222 16.151 23.2222 14.5556V5.88889C23.2222 4.2934 21.9288 3 20.3333 3H5.88889C4.2934 3 3 4.2934 3 5.88889V14.5556C3 16.151 4.2934 17.4444 5.88889 17.4444H8.77778V23.2222L9.62391 22.3761Z" stroke="#333F48" stroke-width="2.67" stroke-linecap="round" stroke-linejoin="round"/>
</svg>
