<svg width="32" height="32" viewBox="0 0 32 32" fill="none" xmlns="http://www.w3.org/2000/svg">
<path d="M6.25 6.25C4.45507 6.25 3 7.70508 3 9.5V11.125H29V9.5C29 7.70507 27.5449 6.25 25.75 6.25H6.25Z" fill="#333F48"/>
<path fill-rule="evenodd" clip-rule="evenodd" d="M29 14.375H3V22.5C3 24.2949 4.45507 25.75 6.25 25.75H25.75C27.5449 25.75 29 24.2949 29 22.5V14.375ZM6.25 20.875C6.25 19.9775 6.97754 19.25 7.875 19.25H9.5C10.3975 19.25 11.125 19.9775 11.125 20.875C11.125 21.7725 10.3975 22.5 9.5 22.5H7.875C6.97754 22.5 6.25 21.7725 6.25 20.875ZM14.375 19.25C13.4775 19.25 12.75 19.9775 12.75 20.875C12.75 21.7725 13.4775 22.5 14.375 22.5H16C16.8975 22.5 17.625 21.7725 17.625 20.875C17.625 19.9775 16.8975 19.25 16 19.25H14.375Z" fill="#333F48"/>
</svg>
