<svg width="32" height="32" viewBox="0 0 32 32" fill="none" xmlns="http://www.w3.org/2000/svg">
<path d="M16 9.5C14.2051 9.5 12.75 8.04493 12.75 6.25C12.75 4.45507 14.2051 3 16 3C17.7949 3 19.25 4.45507 19.25 6.25C19.25 8.04493 17.7949 9.5 16 9.5Z" fill="#333F48"/>
<path d="M16 19.25C14.2051 19.25 12.75 17.7949 12.75 16C12.75 14.2051 14.2051 12.75 16 12.75C17.7949 12.75 19.25 14.2051 19.25 16C19.25 17.7949 17.7949 19.25 16 19.25Z" fill="#333F48"/>
<path d="M16 29C14.2051 29 12.75 27.5449 12.75 25.75C12.75 23.9551 14.2051 22.5 16 22.5C17.7949 22.5 19.25 23.9551 19.25 25.75C19.25 27.5449 17.7949 29 16 29Z" fill="#333F48"/>
</svg>
