<svg width="32" height="32" viewBox="0 0 32 32" fill="none" xmlns="http://www.w3.org/2000/svg">
<path fill-rule="evenodd" clip-rule="evenodd" d="M13.0117 5.81564C14.3225 3.48537 17.6775 3.48536 18.9883 5.81563L28.5547 22.8225C29.8403 25.1081 28.1887 27.9321 25.5664 27.9321H6.43362C3.81131 27.9321 2.1597 25.1081 3.44531 22.8225L13.0117 5.81564ZM17.7142 22.7893C17.7142 23.7361 16.9466 24.5037 15.9999 24.5037C15.0531 24.5037 14.2855 23.7361 14.2855 22.7893C14.2855 21.8426 15.0531 21.075 15.9999 21.075C16.9466 21.075 17.7142 21.8426 17.7142 22.7893ZM15.9999 9.07484C15.0531 9.07484 14.2855 9.84237 14.2855 10.7892V15.9321C14.2855 16.8789 15.0531 17.6464 15.9999 17.6464C16.9466 17.6464 17.7142 16.8789 17.7142 15.9321V10.7892C17.7142 9.84237 16.9466 9.07484 15.9999 9.07484Z" fill="#333F48"/>
</svg>
