<svg width="20" height="20" viewBox="0 0 20 20" fill="none" xmlns="http://www.w3.org/2000/svg">
<path d="M12.3333 6.49996C12.3333 7.78862 11.2887 8.83329 10 8.83329C8.71134 8.83329 7.66667 7.78862 7.66667 6.49996C7.66667 5.2113 8.71134 4.16663 10 4.16663C11.2887 4.16663 12.3333 5.2113 12.3333 6.49996Z" fill="#333F48"/>
<path d="M16.2222 8.05551C16.2222 8.91462 15.5258 9.61107 14.6667 9.61107C13.8076 9.61107 13.1111 8.91462 13.1111 8.05551C13.1111 7.19641 13.8076 6.49996 14.6667 6.49996C15.5258 6.49996 16.2222 7.19641 16.2222 8.05551Z" fill="#333F48"/>
<path d="M13.1111 13.5C13.1111 11.7817 11.7182 10.3888 10 10.3888C8.28178 10.3888 6.88889 11.7817 6.88889 13.5V15.8333H13.1111V13.5Z" fill="#333F48"/>
<path d="M6.88889 8.05551C6.88889 8.91462 6.19244 9.61107 5.33333 9.61107C4.47422 9.61107 3.77778 8.91462 3.77778 8.05551C3.77778 7.19641 4.47422 6.49996 5.33333 6.49996C6.19244 6.49996 6.88889 7.19641 6.88889 8.05551Z" fill="#333F48"/>
<path d="M14.6667 15.8333V13.5C14.6667 12.6801 14.4552 11.9096 14.0839 11.24C14.2702 11.1921 14.4654 11.1666 14.6667 11.1666C15.9553 11.1666 17 12.2113 17 13.5V15.8333H14.6667Z" fill="#333F48"/>
<path d="M5.91609 11.24C5.54477 11.9096 5.33333 12.6801 5.33333 13.5V15.8333H3V13.5C3 12.2113 4.04467 11.1666 5.33333 11.1666C5.53455 11.1666 5.72982 11.1921 5.91609 11.24Z" fill="#333F48"/>
</svg>
