<svg width="32" height="32" viewBox="0 0 32 32" fill="none" xmlns="http://www.w3.org/2000/svg">
<path d="M3 16L5.88889 13.1111M5.88889 13.1111L16 3L26.1111 13.1111M5.88889 13.1111V27.5556C5.88889 28.3533 6.53559 29 7.33333 29H11.6667M26.1111 13.1111L29 16M26.1111 13.1111V27.5556C26.1111 28.3533 25.4644 29 24.6667 29H20.3333M11.6667 29C12.4644 29 13.1111 28.3533 13.1111 27.5556V21.7778C13.1111 20.98 13.7578 20.3333 14.5556 20.3333H17.4444C18.2422 20.3333 18.8889 20.98 18.8889 21.7778V27.5556C18.8889 28.3533 19.5356 29 20.3333 29M11.6667 29H20.3333" stroke="#333F48" stroke-width="2.67" stroke-linecap="round" stroke-linejoin="round"/>
</svg>
