<svg width="32" height="32" viewBox="0 0 32 32" fill="none" xmlns="http://www.w3.org/2000/svg">
<path fill-rule="evenodd" clip-rule="evenodd" d="M29 16C29 23.1797 23.1797 29 16 29C8.8203 29 3 23.1797 3 16C3 8.8203 8.8203 3 16 3C23.1797 3 29 8.8203 29 16ZM17.625 9.5C17.625 10.3975 16.8975 11.125 16 11.125C15.1025 11.125 14.375 10.3975 14.375 9.5C14.375 8.60254 15.1025 7.875 16 7.875C16.8975 7.875 17.625 8.60254 17.625 9.5ZM14.375 14.375C13.4775 14.375 12.75 15.1025 12.75 16C12.75 16.8975 13.4775 17.625 14.375 17.625V22.5C14.375 23.3975 15.1025 24.125 16 24.125H17.625C18.5225 24.125 19.25 23.3975 19.25 22.5C19.25 21.6025 18.5225 20.875 17.625 20.875V16C17.625 15.1025 16.8975 14.375 16 14.375H14.375Z" fill="#333F48"/>
</svg>
