<svg width="32" height="32" viewBox="0 0 32 32" fill="none" xmlns="http://www.w3.org/2000/svg">
<path fill-rule="evenodd" clip-rule="evenodd" d="M29 12.75C29 18.1348 24.6348 22.5 19.25 22.5C18.265 22.5 17.3141 22.3539 16.4177 22.0823L12.75 25.75H9.5V29H3V22.5L9.91774 15.5823C9.64607 14.6859 9.5 13.735 9.5 12.75C9.5 7.36522 13.8652 3 19.25 3C24.6348 3 29 7.36522 29 12.75ZM19.25 6.25C18.3525 6.25 17.625 6.97754 17.625 7.875C17.625 8.77246 18.3525 9.5 19.25 9.5C21.0449 9.5 22.5 10.9551 22.5 12.75C22.5 13.6475 23.2275 14.375 24.125 14.375C25.0225 14.375 25.75 13.6475 25.75 12.75C25.75 9.16015 22.8399 6.25 19.25 6.25Z" fill="#333F48"/>
</svg>
