<svg width="32" height="32" viewBox="0 0 32 32" fill="none" xmlns="http://www.w3.org/2000/svg">
<path d="M26.1111 29V5.88889C26.1111 4.2934 24.8177 3 23.2222 3H8.77778C7.18229 3 5.88889 4.2934 5.88889 5.88889V29M26.1111 29L29 29M26.1111 29H18.8889M5.88889 29L3 29M5.88889 29H13.1111M11.6667 8.77774H13.1111M11.6667 14.5555H13.1111M18.8889 8.77774H20.3333M18.8889 14.5555H20.3333M13.1111 29V21.7777C13.1111 20.98 13.7578 20.3333 14.5556 20.3333H17.4444C18.2422 20.3333 18.8889 20.98 18.8889 21.7777V29M13.1111 29H18.8889" stroke="#333F48" stroke-width="2.67" stroke-linecap="round" stroke-linejoin="round"/>
</svg>
