<svg width="32" height="32" viewBox="0 0 32 32" fill="none" xmlns="http://www.w3.org/2000/svg">
<path d="M14.375 3C12.5801 3 11.125 4.45508 11.125 6.25V19.25C11.125 21.0449 12.5801 22.5 14.375 22.5H24.125C25.9199 22.5 27.375 21.0449 27.375 19.25V10.1731C27.375 9.31114 27.0326 8.48449 26.4231 7.875L22.5 3.9519C21.8905 3.34241 21.0639 3 20.2019 3H14.375Z" fill="#333F48"/>
<path d="M4.625 12.75C4.625 10.9551 6.08007 9.5 7.875 9.5V25.75H20.875C20.875 27.5449 19.4199 29 17.625 29H7.875C6.08007 29 4.625 27.5449 4.625 25.75V12.75Z" fill="#333F48"/>
</svg>
