<svg width="32" height="32" viewBox="0 0 32 32" fill="none" xmlns="http://www.w3.org/2000/svg">
<path d="M3 4.625C3 3.72754 3.72754 3 4.625 3H8.12342C8.91778 3 9.59572 3.5743 9.72631 4.35785L10.9277 11.5661C11.045 12.2698 10.6896 12.9677 10.0515 13.2867L7.5358 14.5446C9.34978 19.0523 12.9477 22.6502 17.4554 24.4642L18.7133 21.9485C19.0323 21.3104 19.7302 20.955 20.4339 21.0723L27.6421 22.2737C28.4257 22.4043 29 23.0822 29 23.8766V27.375C29 28.2725 28.2725 29 27.375 29H24.125C12.458 29 3 19.542 3 7.875V4.625Z" fill="#333F48"/>
</svg>
