<svg width="32" height="32" viewBox="0 0 32 32" fill="none" xmlns="http://www.w3.org/2000/svg">
<path d="M13.58 4.90278C14.1959 2.36574 17.8041 2.36574 18.42 4.90278C18.8179 6.54168 20.6955 7.31943 22.1357 6.44189C24.3652 5.08345 26.9165 7.63479 25.5581 9.86427C24.6806 11.3045 25.4583 13.1821 27.0972 13.58C29.6343 14.1959 29.6343 17.8041 27.0972 18.42C25.4583 18.8179 24.6806 20.6955 25.5581 22.1357C26.9165 24.3652 24.3652 26.9165 22.1357 25.5581C20.6955 24.6806 18.8179 25.4583 18.42 27.0972C17.8041 29.6343 14.1959 29.6343 13.58 27.0972C13.1821 25.4583 11.3045 24.6806 9.86427 25.5581C7.6348 26.9165 5.08345 24.3652 6.44189 22.1357C7.31943 20.6955 6.54168 18.8179 4.90278 18.42C2.36574 17.8041 2.36574 14.1959 4.90278 13.58C6.54168 13.1821 7.31943 11.3045 6.44189 9.86427C5.08345 7.63479 7.63479 5.08345 9.86427 6.44189C11.3045 7.31943 13.1821 6.54168 13.58 4.90278Z" stroke="#333F48" stroke-width="2.67" stroke-linecap="round" stroke-linejoin="round"/>
<path d="M20.3333 16C20.3333 18.3932 18.3932 20.3333 16 20.3333C13.6068 20.3333 11.6667 18.3932 11.6667 16C11.6667 13.6068 13.6068 11.6667 16 11.6667C18.3932 11.6667 20.3333 13.6068 20.3333 16Z" stroke="#333F48" stroke-width="2.67" stroke-linecap="round" stroke-linejoin="round"/>
</svg>
