<svg width="32" height="32" viewBox="0 0 32 32" fill="none" xmlns="http://www.w3.org/2000/svg">
<path fill-rule="evenodd" clip-rule="evenodd" d="M18.42 4.90278C17.8041 2.36574 14.1959 2.36574 13.58 4.90278C13.1821 6.54168 11.3045 7.31943 9.86427 6.44189C7.63479 5.08345 5.08345 7.63479 6.44189 9.86427C7.31943 11.3045 6.54168 13.1821 4.90278 13.58C2.36574 14.1959 2.36574 17.8041 4.90278 18.42C6.54168 18.8179 7.31943 20.6955 6.4419 22.1357C5.08345 24.3652 7.6348 26.9165 9.86427 25.5581C11.3045 24.6806 13.1821 25.4583 13.58 27.0972C14.1959 29.6343 17.8041 29.6343 18.42 27.0972C18.8179 25.4583 20.6955 24.6806 22.1357 25.5581C24.3652 26.9165 26.9165 24.3652 25.5581 22.1357C24.6806 20.6955 25.4583 18.8179 27.0972 18.42C29.6343 17.8041 29.6343 14.1959 27.0972 13.58C25.4583 13.1821 24.6806 11.3045 25.5581 9.86427C26.9165 7.63479 24.3652 5.08345 22.1357 6.44189C20.6955 7.31943 18.8179 6.54168 18.42 4.90278ZM16 20.875C18.6924 20.875 20.875 18.6924 20.875 16C20.875 13.3076 18.6924 11.125 16 11.125C13.3076 11.125 11.125 13.3076 11.125 16C11.125 18.6924 13.3076 20.875 16 20.875Z" fill="#333F48"/>
</svg>
